<svg version="1.2" baseProfile="tiny-ps" xmlns="http://www.w3.org/2000/svg" viewBox="0 0 44 24" width="44" height="24">
	<title>Left</title>
	<style>
		tspan { white-space:pre }
		.shp0 { fill: #6d7749 } 
	</style>
	<path id="Left" class="shp0" d="M2.27 11.37L2.27 11.37L11.36 2.33C11.69 1.95 12.26 1.91 12.64 2.23C13.03 2.56 13.07 3.13 12.74 3.51C12.71 3.54 12.68 3.57 12.64 3.6L5.11 11.11L41.09 11.11C41.59 11.11 42 11.51 42 12.01C42 12.51 41.59 12.92 41.09 12.92L5.11 12.92L12.64 20.41C13.03 20.74 13.07 21.31 12.74 21.68C12.42 22.06 11.84 22.11 11.46 21.78C11.43 21.75 11.39 21.72 11.36 21.68L2.27 12.64C1.92 12.29 1.92 11.72 2.27 11.37Z" />
</svg>