<svg version="1.2" baseProfile="tiny-ps" xmlns="http://www.w3.org/2000/svg" viewBox="0 0 44 24" width="44" height="24">
	<title>Right</title>
	<style>
		tspan { white-space:pre }
		.shp0 { fill: #6d7749 } 
	</style>
	<path id="Right" class="shp0" d="M41.73 11.35L41.73 11.35L32.64 2.27C32.31 1.89 31.74 1.84 31.36 2.17C30.97 2.5 30.93 3.07 31.26 3.45C31.29 3.49 31.32 3.52 31.36 3.55L38.89 11.09L2.91 11.09C2.41 11.09 2 11.49 2 12C2 12.5 2.41 12.9 2.91 12.9L38.89 12.9L31.36 20.43C30.97 20.76 30.93 21.33 31.26 21.71C31.58 22.1 32.16 22.14 32.54 21.81C32.57 21.78 32.61 21.75 32.64 21.71L41.73 12.63C42.08 12.28 42.08 11.71 41.73 11.35Z" />
</svg>